<svg xmlns="http://www.w3.org/2000/svg" viewBox="0 0 32 32">
  <path fill="#57A65E" d="M16 32c.7 0 1.1-.2 1.9-.7.7-.5 1.5-1.2 2.1-2 4.3-4.6 7.9-11.5 9.2-19.2.3-2.8-.4-5.6-3.1-7.7C23.1.6 19.4 0 16 0 12.5 0 8.9.6 5.9 2.5c-2.8 2.1-3.5 4.9-3.1 7.7 1.4 7.7 4.9 14.6 9.2 19.2.6.8 1.5 1.5 2.1 2 .6.2 1.2.6 1.9.6z"/>
  <path fill="#FF4785" d="M16.7 28.4L16.1 12c0-.5.4-1 .9-1l13.9-.9c.5 0 1 .4 1.1.9v18c0 .6-.4 1-1 1l-13.3-.6c-.6 0-1-.4-1-1z"/>
  <path fill="#FFF" d="M27.8 12.6l.1-2.3 1.9-.2.1 2.4c0 .1-.1.2-.1.2h-.1l-.7-.6-.9.7c-.1 0-.2 0-.3-.2 0 .1 0 0 0 0zm-2.4 5c0 .4 2.6.2 3-.1 0-2.6-1.4-4-4-4s-4 1.4-4 3.5c0 3.7 5 3.8 5 5.8 0 .6-.3.9-.9.9-.8 0-1.1-.4-1.1-1.8 0-.3-3-.4-3.1 0-.2 3.3 1.8 4.3 4.2 4.3 2.3 0 4.1-1.2 4.1-3.4 0-3.9-5-3.8-5-5.8 0-.8.6-.9.9-.9s.9.1.9 1.5z"/>
</svg>
